<svg width="387" height="308" viewBox="0 0 387 308" fill="none" xmlns="http://www.w3.org/2000/svg">
<path d="M49.9937 161.358C50.6237 148.365 51.0987 139.266 52.1787 131.636C53.3037 123.713 55.0717 117.369 58.3387 109.886C64.7657 95.1821 110.356 34.1521 146.954 26.0631C183.559 17.9751 196.401 20.9151 213.739 24.5961C231.075 28.2671 258.047 29.0061 278.594 48.8561C294.608 64.3271 308.677 71.7611 317.139 86.8141C319.539 91.0791 321.489 95.9541 322.903 101.796C325.321 111.771 329.112 122.901 332.374 134.383C336.852 150.117 340.344 166.527 337.999 181.592C337.514 184.715 336.778 187.777 335.746 190.767C335.35 191.922 334.968 193.04 334.603 194.119C326.062 219.258 325.394 225.63 323.547 232.675C321.621 240.035 304.279 272.383 299.147 275.328C294.801 277.809 273.934 290.806 266.037 298.766C227.429 298.294 150.818 297.548 111.804 298.467C98.6837 289.76 84.1377 275.662 75.6827 263.559C65.4037 248.854 56.4137 236.356 53.2057 214.298C52.4407 209.02 51.7777 204.749 51.2437 200.95C49.5267 188.859 49.0147 181.493 49.9937 161.358Z" fill="#EDE6B9"/>
<path opacity="0.4" d="M10.6718 150.107C22.8578 151.622 42.0968 156.671 33.1188 158.188C24.1388 159.703 44.0218 170.816 38.8898 171.321C33.7588 171.828 22.8578 194.055 51.3968 193.548C53.0638 193.522 54.5948 193.386 56.0068 193.165C73.7858 193.321 93.0468 194.406 105.07 197.78C132.326 205.432 217.422 205.432 241.357 207.195C265.287 208.96 279.25 199.544 272.599 191.891C265.951 184.24 265.707 183.636 287.644 184.814C301.888 185.577 302.05 184.704 316.972 185.67C317.042 185.506 319.652 185.877 319.722 185.715C329.259 186.991 342.935 188.451 343.566 183.7C344.744 174.814 323.14 175.836 323.14 175.836C299.66 175.668 282.474 176.587 269.278 176.587C251.994 176.587 214.927 170.962 224.48 169.363C234.043 167.759 268.615 164.822 265.287 152.458C261.965 140.103 289.888 141.28 318.473 140.103C329.774 139.636 341.282 138.8 351.065 137.963C351.065 137.963 382.653 141.011 386.18 136.971C389.707 132.93 361.808 129.392 357.639 128.888C353.472 128.382 354.433 97.0651 327.496 97.5691C324.081 97.6331 321.333 98.0821 319.135 98.8111C263.494 99.9521 162.226 103.584 182.186 114.79C209.443 130.093 238.037 144.217 197.479 151.281C156.928 158.347 144.291 161.286 151.606 169.525C158.919 177.764 114.682 179.529 93.2548 177.764C71.8258 175.999 91.7768 159.52 99.7478 148.927C106.156 140.418 74.4108 137.223 50.6378 135.684C50.6378 135.684 23.4998 133.941 9.70977 135.455C-4.07823 136.972 -1.51323 148.589 10.6718 150.107ZM220.748 184.829C220.748 184.829 252.742 187.653 243.058 192.424C233.379 197.192 191.492 194.244 171.549 190.715C151.605 187.181 158.918 181.887 220.748 184.829Z" fill="#B79C2A"/>
<path d="M80.1992 299.867C80.1992 303.987 110.89 307.328 148.75 307.328C186.608 307.328 217.3 303.987 217.3 299.867C217.3 295.746 186.609 292.405 148.75 292.405C110.891 292.405 80.1992 295.746 80.1992 299.867Z" fill="#C6C6C6"/>
<path d="M134.047 288.599V303.196H146.291L148.174 301C148.174 301 148.802 303.511 155.08 303.511C161.359 303.511 173.445 303.511 173.445 303.511C173.445 303.511 175.172 297.704 169.521 295.82L154.453 292.052C154.453 292.052 152.884 291.267 152.884 288.6C152.884 288.6 146.762 282.634 134.047 288.599Z" fill="#171819"/>
<path d="M100.533 288.599L99.9331 303.196H112.177L114.06 301C114.06 301 114.689 303.511 120.967 303.511C127.245 303.511 139.332 303.511 139.332 303.511C139.332 303.511 141.059 297.704 135.407 295.82L120.339 292.052C120.339 292.052 118.769 291.267 118.769 288.6C118.769 288.6 113.25 282.634 100.533 288.599Z" fill="#232528"/>
<path d="M99.1992 169.621L100.455 289.855H118.873L125.885 193.479L131.537 193.165L134.047 289.855H152.884L156.336 169.621C156.336 169.621 124.316 157.377 99.1992 169.621Z" fill="#34363A"/>
<path d="M156.336 169.621L156.144 176.317H99.2722L99.2002 169.621C102.151 168.182 105.198 167.093 108.272 166.27H144.299C151.574 167.805 156.336 169.621 156.336 169.621Z" fill="#96450E"/>
<path d="M122.537 176.213C122.537 176.903 123.1 177.469 123.792 177.469H133.42C134.11 177.469 134.676 176.904 134.676 176.213V169.935C134.676 169.245 134.111 168.679 133.42 168.679H123.792C123.101 168.679 122.537 169.244 122.537 169.935V176.213Z" fill="#FFA300"/>
<path d="M124.524 174.861C124.524 175.529 125.062 176.076 125.718 176.076H131.491C132.147 176.076 132.684 175.529 132.684 174.861V171.285C132.684 170.617 132.147 170.071 131.491 170.071H125.718C125.062 170.071 124.524 170.617 124.524 171.285V174.861Z" fill="#96450E"/>
<path d="M148.016 168.365H145.035V177.966H148.016V168.365Z" fill="#34363A"/>
<path d="M109.56 168.365H106.578V177.966H109.56V168.365Z" fill="#34363A"/>
<path d="M161.753 100.458L178.963 116.537L204.734 110.254L207.419 121.554L180.848 127.865C180.848 127.865 176.149 129.143 172.385 125.52L155.023 109.478L161.753 100.458Z" fill="#E29E60"/>
<path d="M204.743 107.912C204.743 107.912 206.088 104.178 209.356 102.54C212.624 100.903 213.385 99.8091 213.385 99.8091C213.385 99.8091 216.085 103.254 211.635 106.247L218.15 104.7C218.15 104.7 220.697 106.408 218.958 108.595L221.86 107.906C221.86 107.906 224.091 109.151 222.876 112.182L221.044 112.618C221.044 112.618 222.569 115.643 219.587 116.675L218.059 117.038C218.059 117.038 219.979 119.002 217.709 120.993L210.226 122.77C210.226 122.77 204.278 123.538 202.79 117.276C201.303 111.015 204.743 107.912 204.743 107.912Z" fill="#E29E60"/>
<path d="M151.718 83.8751L177.069 110.251L164.37 122.775L140.81 98.4481C140.81 98.4481 134.552 84.0421 151.718 83.8751Z" fill="#4C4466"/>
<path d="M110.509 79.8371H144.198C153.616 79.8371 152.987 88.6271 152.987 88.6271L156.337 169.621H99.2002L101.72 88.6271C101.72 88.6271 101.092 79.8371 110.509 79.8371Z" fill="#5F547A"/>
<path d="M130.595 82.8721L137.709 88.4181L137.92 61.4201H120.34L119.082 79.7401L130.595 82.8721Z" fill="#F9C287"/>
<path d="M120.34 61.4201H137.92L137.801 76.7451C132.725 77.0221 124.215 76.2071 119.845 68.6321L120.34 61.4201Z" fill="#E29E60"/>
<path d="M159.684 20.5051C159.684 20.5051 164.079 36.3061 155.604 44.0501L150.372 24.8481L159.684 20.5051Z" fill="#6D472D"/>
<path d="M156.758 36.0981C156.758 36.0981 158.221 66.0241 142.525 69.7921C128.577 73.1401 115.177 68.6641 111.786 47.5081C111.786 47.5081 108.373 17.2441 120.524 10.7301C132.672 4.21608 155.879 5.28808 156.758 36.0981Z" fill="#F9C287"/>
<path d="M122.902 40.7001C122.902 40.7001 121.333 56.0821 125.884 63.6171C129.745 70.0051 140.702 70.6171 149.021 65.9741C147.271 67.7971 145.14 69.1641 142.524 69.7911C128.576 73.1391 115.176 68.6631 111.785 47.5071C111.785 47.5071 110.987 40.3941 111.543 32.3261C116.303 31.6361 119.92 31.4391 119.92 31.4391L122.902 40.7001Z" fill="#E29E60"/>
<path d="M166.215 15.8751C162.822 22.9851 142.733 32.3301 124.317 26.6781L122.903 40.7001L119.763 40.6221C119.763 40.6221 120.313 34.1861 115.369 35.8351C110.495 37.4591 111.444 49.2551 118.352 48.3921C118.352 48.3921 117.932 53.7811 113.538 55.0371C113.538 55.0371 105.69 44.2601 107.363 26.6791C109.039 9.09908 115.945 8.68008 115.945 8.68008C115.945 8.68008 118.948 2.32108 129.129 4.07608C141.268 6.16908 171.082 5.67208 166.215 15.8751Z" fill="#6D472D"/>
<path d="M147.004 36.6191C147.174 36.6191 147.348 36.5721 147.503 36.4731C150.729 34.4091 153.27 36.3371 153.375 36.4201C153.778 36.7331 154.359 36.6651 154.674 36.2651C154.99 35.8651 154.927 35.2881 154.529 34.9701C153.281 33.9731 149.998 32.6761 146.504 34.9131C146.072 35.1881 145.947 35.7621 146.223 36.1931C146.4 36.4681 146.699 36.6191 147.004 36.6191Z" fill="#6D472D"/>
<path d="M131.936 36.7231C132.107 36.7231 132.28 36.6751 132.434 36.5771C135.659 34.5131 138.2 36.4411 138.307 36.5241C138.71 36.8371 139.292 36.7691 139.606 36.3691C139.922 35.9691 139.858 35.3921 139.461 35.0741C138.212 34.0771 134.93 32.7801 131.436 35.0171C131.004 35.2931 130.879 35.8661 131.155 36.2961C131.332 36.5721 131.629 36.7231 131.936 36.7231Z" fill="#6D472D"/>
<path d="M137.381 42.7521C137.381 42.7521 138.338 40.5951 137.389 39.0451C137.389 39.0451 135.841 38.2701 134.72 39.0451C134.72 39.0451 133.86 41.0251 134.72 42.7471C134.72 42.7471 136.002 43.3551 137.381 42.7521Z" fill="#231F20"/>
<path d="M152.074 42.8561C152.074 42.8561 153.031 40.6991 152.083 39.1491C152.083 39.1491 150.533 38.3741 149.416 39.1491C149.416 39.1491 148.555 41.1301 149.416 42.8521C149.416 42.8521 150.697 43.4591 152.074 42.8561Z" fill="#231F20"/>
<path d="M144.801 47.9211C144.801 47.9211 147.074 49.2561 146.369 51.3751C145.663 53.4941 142.367 54.5931 140.012 52.3161L140.838 50.8481C140.838 50.8481 146.316 53.7031 144.801 47.9211Z" fill="#E29E60"/>
<path d="M128.867 172.027H123.845V174.015H128.867V172.027Z" fill="#FFA300"/>
<path opacity="0.2" d="M155.814 157.012L145.755 151.916L114.88 140.041L107.13 111.166L101.024 110.938L100.319 133.602L102.13 140.916C102.13 140.916 103.755 147.166 110.755 149.666L140.505 160.791C140.505 160.791 139.63 163.541 141.755 164.416C143.341 165.069 152.023 168.018 156.329 169.473L155.814 157.012Z" fill="#373244"/>
<path d="M130.595 82.8721L136.244 89.0981C136.244 89.0981 133.183 94.0401 130.986 93.9651C128.711 93.8861 124.787 89.0981 124.787 89.0981L130.595 82.8721Z" fill="#FFA300"/>
<path d="M133.149 91.6311L135.408 112.588L137.292 158.422L128.816 163.758L121.281 158.422L127.036 111.751L128.187 91.2411L133.149 91.6311Z" fill="#FFA300"/>
<path d="M115.368 79.8371L119.449 74.3431L131.065 82.8191L124.316 91.6091L115.368 79.8371Z" fill="#877EA5"/>
<path d="M142.053 79.8371L137.893 75.8351L130.124 82.8191L136.873 91.6091L142.053 79.8371Z" fill="#877EA5"/>
<path d="M115.334 112.723L118.784 135.317L149.8 147.811L145.561 158.625L113.702 146.14C113.702 146.14 107.304 143.965 106.277 138.842L101.947 115.905L115.334 112.723Z" fill="#F9C287"/>
<path d="M150.312 145.568C150.312 145.568 153.548 143.268 157.164 143.785C160.783 144.304 162.032 143.839 162.032 143.839C162.032 143.839 162.287 148.209 156.922 148.131L163.158 150.575C163.158 150.575 164.277 153.429 161.599 154.234L164.377 155.323C164.377 155.323 165.5 157.618 162.773 159.415L161.019 158.727C161.019 158.727 160.547 162.082 157.509 161.229L156.048 160.657C156.048 160.657 156.505 163.364 153.505 163.706L146.344 160.899C146.344 160.899 141.02 158.139 143.368 152.147C145.717 146.155 150.312 145.568 150.312 145.568Z" fill="#F9C287"/>
<path d="M112.298 79.8751L120.381 129.542L101.631 132.042L96.0202 96.6141C96.0202 96.6141 93.1312 78.7081 112.298 79.8751Z" fill="#5F547A"/>
<path d="M137.756 109.104L149.381 109.041L149.569 120.479C149.569 120.479 147.506 122.729 144.131 123.104C144.131 123.104 139.818 122.604 138.256 120.604L137.756 109.104Z" fill="#493E68"/>
<path d="M122.547 45.9581C122.547 45.9581 122.214 55.7911 130.464 60.9581C130.464 60.9581 132.548 55.2081 136.131 55.1251C139.714 55.0411 145.797 55.2911 149.214 54.2911C152.631 53.2911 154.131 56.9581 154.131 56.9581C154.131 56.9581 151.88 71.7191 137.714 71.8751C122.631 72.0411 119.297 59.5411 119.547 45.7081L122.547 45.9581Z" fill="#6D472D"/>
<path d="M143.36 62.4211C139.431 62.4891 136.286 60.0741 136.238 60.0361C135.833 59.7181 135.761 59.1311 136.081 58.7261C136.397 58.3221 136.982 58.2501 137.39 58.5671C137.645 58.7651 143.599 63.2941 148.739 58.0421C149.098 57.6751 149.689 57.6671 150.059 58.0281C150.427 58.3891 150.434 58.9801 150.073 59.3481C147.85 61.6181 145.49 62.3841 143.36 62.4211Z" fill="#F9C287"/>
<path d="M200.716 299.867C200.716 303.987 231.407 307.328 269.267 307.328C307.126 307.328 337.818 303.987 337.818 299.867C337.818 295.746 307.127 292.405 269.267 292.405C231.407 292.405 200.716 295.746 200.716 299.867Z" fill="#C6C6C6"/>
<path d="M240.06 32.4171L254.81 28.4591L255.643 24.2921C255.643 24.2921 241.623 26.8541 240.06 32.4171Z" fill="#114863"/>
<path d="M250.507 109.974L237.48 129.595L210.954 129.438V141.053H238.265C238.265 141.053 243.131 141.21 245.956 136.815L259.141 117.194L250.507 109.974Z" fill="#E29E60"/>
<path d="M210.403 127.161C210.403 127.161 208.231 123.839 204.673 123.001C201.116 122.164 200.122 121.275 200.122 121.275C200.122 121.275 198.292 125.251 203.313 127.134H196.616C196.616 127.134 194.533 129.384 196.73 131.11H193.749C193.749 131.11 191.864 132.837 193.749 135.506H195.632C195.632 135.506 194.847 138.802 197.987 139.116H199.556C199.556 139.116 198.143 141.47 200.811 142.883H208.502C208.502 142.883 214.467 142.255 214.467 135.819C214.468 129.385 210.403 127.161 210.403 127.161Z" fill="#E29E60"/>
<path d="M258.435 85.1671L242.476 118.209L257.476 127.042L273.143 94.7091C273.143 94.7091 270.602 82.0001 258.435 85.1671Z" fill="#156A9E"/>
<path d="M276.786 288.599V303.196H264.543L262.66 301C262.66 301 262.031 303.511 255.753 303.511C249.474 303.511 237.389 303.511 237.389 303.511C237.389 303.511 235.662 297.704 241.313 295.82L256.381 292.052C256.381 292.052 257.949 291.267 257.949 288.6C257.949 288.6 264.072 282.634 276.786 288.599Z" fill="#5B2924"/>
<path d="M310.3 288.599L310.901 303.196H298.657L296.773 301C296.773 301 296.145 303.511 289.866 303.511C283.589 303.511 271.501 303.511 271.501 303.511C271.501 303.511 269.774 297.704 275.427 295.82L290.495 292.052C290.495 292.052 292.064 291.267 292.064 288.6C292.064 288.6 297.584 282.634 310.3 288.599Z" fill="#72372E"/>
<path d="M311.634 169.621L310.378 289.855H291.961L284.949 193.479L279.297 193.165L276.786 289.855H257.949L254.497 169.621C254.497 169.621 286.517 157.377 311.634 169.621Z" fill="#474E5E"/>
<path d="M254.497 169.621L254.689 176.317H311.562L311.633 169.621C308.683 168.182 305.636 167.093 302.561 166.27H266.534C259.259 167.805 254.497 169.621 254.497 169.621Z" fill="#93582F"/>
<path d="M288.297 176.213C288.297 176.903 287.733 177.469 287.041 177.469H277.414C276.723 177.469 276.158 176.904 276.158 176.213V169.935C276.158 169.245 276.722 168.679 277.414 168.679H287.041C287.732 168.679 288.297 169.244 288.297 169.935V176.213Z" fill="#6D80AA"/>
<path d="M286.309 174.861C286.309 175.529 285.772 176.076 285.116 176.076H279.343C278.687 176.076 278.149 175.529 278.149 174.861V171.285C278.149 170.617 278.687 170.071 279.343 170.071H285.116C285.772 170.071 286.309 170.617 286.309 171.285V174.861Z" fill="#93582F"/>
<path d="M265.797 168.365H262.816V177.966H265.797V168.365Z" fill="#474E5E"/>
<path d="M304.255 168.365H301.273V177.966H304.255V168.365Z" fill="#474E5E"/>
<path d="M300.324 79.8371H266.636C257.218 79.8371 257.846 88.6271 257.846 88.6271L254.496 169.621H311.633L309.115 88.6271C309.115 88.6271 309.742 79.8371 300.324 79.8371Z" fill="#0E78C6"/>
<path d="M280.238 82.8721L273.125 88.4181L272.913 61.4201H290.494L291.752 79.7401L280.238 82.8721Z" fill="#F9C287"/>
<path d="M290.494 61.4201H272.913L273.033 76.7451C278.109 77.0221 286.618 76.2071 290.988 68.6321L290.494 61.4201Z" fill="#E29E60"/>
<path d="M251.15 20.5051C251.15 20.5051 249.935 37.0421 255.23 44.0501L260.461 24.8481L251.15 20.5051Z" fill="#89430E"/>
<path d="M254.075 36.0981C254.075 36.0981 252.613 66.0241 268.308 69.7921C282.257 73.1401 295.656 68.6641 299.048 47.5081C299.048 47.5081 302.46 17.2441 290.31 10.7301C278.162 4.21608 254.954 5.28808 254.075 36.0981Z" fill="#F9C287"/>
<path d="M287.932 40.7001C287.932 40.7001 289.5 56.0821 284.95 63.6171C281.089 70.0051 270.131 70.6171 261.812 65.9741C263.563 67.7971 265.694 69.1641 268.309 69.7911C282.258 73.1391 295.657 68.6631 299.049 47.5071C299.049 47.5071 299.846 40.3941 299.29 32.3261C294.531 31.6361 290.913 31.4391 290.913 31.4391L287.932 40.7001Z" fill="#E29E60"/>
<path d="M251.15 20.5051C251.435 28.9171 268.101 32.3301 286.517 26.6791L287.931 40.7011L291.07 40.6231C291.07 40.6231 290.52 34.1871 295.465 35.8361C300.34 37.4601 299.391 49.2561 292.483 48.3931C292.483 48.3931 292.903 53.7821 297.297 55.0381C297.297 55.0381 305.144 44.2611 303.471 26.6801C301.795 9.10008 294.889 8.68108 294.889 8.68108C294.889 8.68108 291.887 2.32208 281.705 4.07708C269.566 6.16908 253.673 15.3761 251.15 20.5051Z" fill="#89430E"/>
<path d="M263.829 36.6191C263.66 36.6191 263.485 36.5721 263.33 36.4731C260.105 34.4091 257.564 36.3371 257.458 36.4201C257.055 36.7331 256.475 36.6651 256.159 36.2651C255.844 35.8651 255.906 35.2881 256.303 34.9701C257.552 33.9731 260.834 32.6761 264.329 34.9131C264.76 35.1881 264.886 35.7621 264.609 36.1931C264.434 36.4681 264.135 36.6191 263.829 36.6191Z" fill="#89430E"/>
<path d="M278.898 36.7231C278.726 36.7231 278.553 36.6751 278.4 36.5771C275.174 34.5131 272.633 36.4411 272.527 36.5241C272.123 36.8371 271.541 36.7691 271.228 36.3691C270.912 35.9691 270.976 35.3921 271.373 35.0741C272.621 34.0771 275.904 32.7801 279.398 35.0171C279.829 35.2931 279.955 35.8661 279.679 36.2961C279.502 36.5721 279.204 36.7231 278.898 36.7231Z" fill="#89430E"/>
<path d="M273.453 42.7521C273.453 42.7521 272.496 40.5951 273.444 39.0451C273.444 39.0451 274.992 38.2701 276.113 39.0451C276.113 39.0451 276.974 41.0251 276.113 42.7471C276.113 42.7471 274.832 43.3551 273.453 42.7521Z" fill="#231F20"/>
<path d="M258.76 42.8561C258.76 42.8561 257.803 40.6991 258.75 39.1491C258.75 39.1491 260.3 38.3741 261.418 39.1491C261.418 39.1491 262.279 41.1301 261.418 42.8521C261.418 42.8521 260.136 43.4591 258.76 42.8561Z" fill="#231F20"/>
<path d="M266.033 47.9211C266.033 47.9211 263.759 49.2561 264.465 51.3751C265.17 53.4941 268.467 54.5931 270.821 52.3161L269.996 50.8481C269.996 50.8481 264.517 53.7031 266.033 47.9211Z" fill="#E29E60"/>
<path d="M286.988 172.027H281.966V174.015H286.988V172.027Z" fill="#6D80AA"/>
<path d="M262.04 56.2541C262.04 56.2541 267.709 59.2671 275.683 55.9001C275.683 55.9001 276.921 64.4941 268.595 64.1391C260.581 63.7981 262.04 56.2541 262.04 56.2541Z" fill="white"/>
<path d="M271.371 60.3731C269.367 60.0091 266.127 61.2551 263.754 62.3671C264.75 63.3231 266.265 64.0391 268.596 64.1381C271.579 64.2651 273.321 63.2381 274.346 61.8741C273.764 61.2581 272.852 60.6431 271.371 60.3731Z" fill="#E23333"/>
<path d="M277.811 85.0421L277.728 105.042L282.895 105.125L283.645 85.9591L280.238 82.8721L277.811 85.0421Z" fill="#156A9E"/>
<path d="M295.465 79.8371L291.385 74.3431L279.767 82.8191L286.517 91.6091L295.465 79.8371Z" fill="#175377"/>
<path d="M268.78 79.8371L272.94 75.8351L280.709 82.8191L273.961 91.6091L268.78 79.8371Z" fill="#175377"/>
<path d="M286.98 28.8891C286.98 28.8891 296.977 29.3951 303.81 27.7501C303.81 27.7501 302.798 10.3721 293.181 4.29708C283.564 -1.77692 260.617 -0.595916 254.88 6.49008C249.144 13.5761 250.324 24.2061 250.324 24.2061C250.324 24.2061 274.367 22.7731 286.98 28.8891Z" fill="#156A9E"/>
<path d="M292.728 29.0421C292.728 29.0421 278.223 30.9141 275.186 31.1671C272.149 31.4201 265.308 25.2801 255.311 26.2921C245.314 27.3051 240.061 32.4171 240.061 32.4171C240.061 32.4171 236.686 27.4171 250.436 23.2921C250.436 23.2921 275.853 17.6671 292.728 29.0421Z" fill="#175377"/>
<path d="M252.228 21.2921C252.228 21.2921 251.31 9.29208 259.894 5.29208C259.894 5.29208 272.311 1.12508 284.644 6.45908C284.644 6.45908 290.228 11.2921 289.728 25.1261C289.728 25.1261 277.311 15.8751 252.228 21.2921Z" fill="#4AA1CC"/>
<path d="M260.017 48.1381C257.711 48.1381 255.71 47.4321 254.528 46.2011C254.33 46.0711 253.004 44.7991 253.194 38.5031L253.205 38.1491L253.544 38.0421C253.658 38.0051 256.399 37.1541 260.48 37.1541C262.499 37.1541 264.501 37.3661 266.431 37.7831L266.78 37.8581L266.822 38.2121C266.845 38.3941 267.349 42.6981 266.317 45.3571C265.608 47.1821 262.611 48.1381 260.017 48.1381ZM254.184 38.8991C254.068 44.3781 255.19 45.4541 255.202 45.4641C256.244 46.5431 257.982 47.1371 260.017 47.1371C262.561 47.1371 264.918 46.1961 265.384 44.9941C266.165 42.9801 265.959 39.7511 265.863 38.6851C264.112 38.3311 262.303 38.1521 260.478 38.1521C257.357 38.1531 255.023 38.6791 254.184 38.8991Z" fill="white"/>
<path d="M275.3 47.9821C272.994 47.9821 270.993 47.2761 269.811 46.0451C269.614 45.9151 268.287 44.6431 268.477 38.3461L268.488 37.9921L268.827 37.8851C268.941 37.8481 271.682 36.9971 275.763 36.9971C277.782 36.9971 279.784 37.2091 281.714 37.6261L282.063 37.7011L282.105 38.0551C282.127 38.2371 282.63 42.5411 281.599 45.2011C280.891 47.0271 277.893 47.9821 275.3 47.9821ZM269.467 38.7441C269.351 44.2231 270.473 45.2991 270.485 45.3091C271.527 46.3881 273.265 46.9821 275.3 46.9821C277.843 46.9821 280.2 46.0411 280.666 44.8391C281.446 42.8271 281.241 39.5971 281.146 38.5291C279.395 38.1751 277.586 37.9961 275.761 37.9961C272.641 37.9981 270.307 38.5241 269.467 38.7441Z" fill="white"/>
<path d="M269.06 41.8541C269.021 41.8331 267.341 41.4411 266.435 41.9171L265.91 40.3431C267.817 39.3471 269.234 40.1221 269.31 40.1671L269.06 41.8541Z" fill="white"/>
<path d="M281.733 41.4161L281.638 39.4181L290.075 38.8551L290.123 40.6041L281.733 41.4161Z" fill="white"/>
<path d="M280.31 90.9171C281 90.9171 281.56 90.3574 281.56 89.6671C281.56 88.9767 281 88.4171 280.31 88.4171C279.62 88.4171 279.06 88.9767 279.06 89.6671C279.06 90.3574 279.62 90.9171 280.31 90.9171Z" fill="#175377"/>
<path d="M280.31 96.0421C281 96.0421 281.56 95.4824 281.56 94.7921C281.56 94.1017 281 93.5421 280.31 93.5421C279.62 93.5421 279.06 94.1017 279.06 94.7921C279.06 95.4824 279.62 96.0421 280.31 96.0421Z" fill="#175377"/>
<path d="M309.887 113.42L309.512 101.392L309.487 100.591L307.061 95.3751L290.561 143.375L255.984 133.645L255.777 138.674L255.568 143.728L281.727 153.708C281.727 153.708 284.61 154.63 288.203 154.607L288.31 154.791C288.31 154.791 296.685 157.666 302.81 151.541L310.777 142.067L309.887 113.42Z" fill="#196E99"/>
<path d="M259.859 97.0771H215.334V141.604H259.859V97.0771Z" fill="#E23333"/>
<path d="M242.952 97.0771H235.631V141.69H242.952V97.0771Z" fill="#E58E03"/>
<path d="M202.02 127.112L215.318 141.604V97.0771L201.958 84.0421L202.02 127.112Z" fill="#C62222"/>
<path d="M202.02 84.1251L215.334 97.3721L259.859 97.0771L242.592 84.1251H202.02Z" fill="#EF5E5E"/>
<path d="M205.872 131.31L211.349 137.277V93.2031L205.872 87.8611V131.31Z" fill="#E58E03"/>
<path d="M211.227 93.2851H254.805L247.657 87.9241H205.84L211.227 93.2851Z" fill="#FFB448"/>
<path d="M221.189 84.1251L235.631 97.3671H242.952L228.512 84.1251H221.189Z" fill="#FFA300"/>
<path d="M280.31 101.167C281 101.167 281.56 100.607 281.56 99.9171C281.56 99.2267 281 98.6671 280.31 98.6671C279.62 98.6671 279.06 99.2267 279.06 99.9171C279.06 100.607 279.62 101.167 280.31 101.167Z" fill="#175377"/>
<path d="M315.722 129.305C316.6 130.104 316.665 131.477 315.867 132.355L297.858 152.178C297.06 153.057 295.688 153.123 294.809 152.325L268.75 128.654C267.872 127.856 267.805 126.483 268.604 125.605L286.613 105.781C287.411 104.903 288.783 104.837 289.662 105.635L315.722 129.305Z" fill="#A56553"/>
<path d="M288.301 105.745L268.722 127.298L296.184 152.244L315.763 130.691L288.301 105.745Z" fill="#ECF0F3"/>
<path d="M282.499 109.47L272.343 120.651L273.007 121.254L283.164 110.074L282.499 109.47Z" fill="#808282"/>
<path d="M284.643 111.435L274.487 122.617L275.151 123.22L285.307 112.039L284.643 111.435Z" fill="#A3A4A4"/>
<path d="M275.107 123.153L272.334 120.632L272.937 119.966L275.712 122.486L275.107 123.153Z" fill="#A3A4A4"/>
<path d="M282.484 109.43L281.878 110.096L284.654 112.617L285.259 111.951L282.484 109.43Z" fill="#A3A4A4"/>
<path d="M275.819 126.736L273.679 129.097L275.062 130.351L277.202 127.99L275.819 126.736Z" fill="#7AC9AD"/>
<path d="M293.47 112.64L276.352 131.507L276.151 131.329L293.271 112.461L293.47 112.64Z" fill="#ABCADA"/>
<path d="M294.457 113.536L277.339 132.403L277.14 132.225L294.26 113.356L294.457 113.536Z" fill="#ABCADA"/>
<path d="M281.319 131.417L279.179 133.776L280.562 135.031L282.702 132.672L281.319 131.417Z" fill="#7AC9AD"/>
<path d="M298.768 117.152L281.65 136.02L281.847 136.199L298.965 117.331L298.768 117.152Z" fill="#ABCADA"/>
<path d="M299.784 118.053L282.663 136.921L282.86 137.1L299.981 118.231L299.784 118.053Z" fill="#ABCADA"/>
<path d="M286.661 136.083L284.519 138.443L285.902 139.698L288.044 137.338L286.661 136.083Z" fill="#7AC9AD"/>
<path d="M304.294 121.985L287.173 140.855L286.974 140.676L304.095 121.807L304.294 121.985Z" fill="#ABCADA"/>
<path d="M305.071 122.707L287.953 141.575L288.15 141.754L305.268 122.886L305.071 122.707Z" fill="#ABCADA"/>
<path d="M291.6 140.567L289.46 142.928L290.843 144.182L292.983 141.822L291.6 140.567Z" fill="#7AC9AD"/>
<path d="M309.017 126.301L291.899 145.169L292.097 145.348L309.215 126.48L309.017 126.301Z" fill="#ABCADA"/>
<path d="M310.216 127.376L293.098 146.245L292.899 146.066L310.017 127.197L310.216 127.376Z" fill="#ABCADA"/>
<path d="M295.791 144.525L293.649 146.883L295.032 148.139L297.174 145.781L295.791 144.525Z" fill="#7AC9AD"/>
<path d="M313.427 130.423L296.308 149.292L296.109 149.113L313.228 130.245L313.427 130.423Z" fill="#ABCADA"/>
<path d="M314.416 131.319L297.295 150.188L297.098 150.009L314.217 131.141L314.416 131.319Z" fill="#ABCADA"/>
<path d="M273.188 128.487L275.54 129.032L274.552 124.659L274.507 127.935L273.188 128.487Z" fill="#ABCADA"/>
<path d="M290.31 115.542L284.727 135.542C284.727 135.542 284.102 138.625 281.227 137.375C277.102 136.25 255.685 127.542 255.685 127.542L252.435 137.917L281.727 150.125C281.727 150.125 294.227 154.25 297.727 145.125L305.31 119.917L290.31 115.542Z" fill="#F9C287"/>
<path d="M256.051 125.099C256.051 125.099 255.285 121.142 252.265 118.988C249.243 116.834 248.651 115.617 248.651 115.617C248.651 115.617 245.403 118.65 249.4 122.351L243.104 119.777C243.104 119.777 240.283 121.091 241.687 123.558L238.882 122.412C238.882 122.412 236.449 123.311 237.193 126.543L238.964 127.267C238.964 127.267 236.96 130.063 239.79 131.564L241.266 132.168C241.266 132.168 239.032 133.837 240.997 136.19L248.226 139.145C248.226 139.145 254.071 140.846 256.543 134.798C259.017 128.748 256.051 125.099 256.051 125.099Z" fill="#F9C287"/>
<path d="M286.56 123.042L304.31 128.292L311.685 96.2921C311.685 96.2921 313.602 86.5421 309.477 82.5421C306.191 79.3551 298.935 77.9171 295.81 86.4171C292.685 94.9171 286.56 123.042 286.56 123.042Z" fill="#0E78C6"/>
</svg>
