<svg id="Layer_1" data-name="Layer 1" xmlns="http://www.w3.org/2000/svg" viewBox="0 0 258.86 123.43"><defs><style>.cls-1{fill:#fff;}</style></defs><path class="cls-1" d="M35.31,83.19H23.66l-1.84,9.65H34.94L34,97.63H15.29l6.17-32.48h18l-.94,4.79H26.18l-1.63,8.5H36.24Z"/><path class="cls-1" d="M66.36,97.63,68.5,82.36c.48-3.32,1.2-7.92,2-11.92h-.14c-1.68,3.8-3.6,8-5.37,11.45L57,97.25H52.63L50.91,82.13c-.38-3.64-.67-7.81-.86-11.69H50c-.83,3.72-1.81,8.62-2.62,11.93L43.58,97.63h-5.2l8.27-32.48h7.4l1.73,15.18c.25,2.91.61,6.27.65,9.34h.17c1.16-3.07,2.73-6.47,4.13-9.3l7.83-15.22h7.53L71.81,97.63Z"/><path class="cls-1" d="M83.89,65.7a36.07,36.07,0,0,1,7.83-.77c3,0,6.21.6,8.32,2.31a7.66,7.66,0,0,1,3,6.45,11.17,11.17,0,0,1-4.16,8.81c-2.59,2.09-6.33,3.06-10.15,3.06a23.2,23.2,0,0,1-3-.22L83.33,97.63h-5.5Zm2.64,15a13.49,13.49,0,0,0,2.93.28c4.76,0,7.93-3,7.93-6.85,0-3.45-2.49-4.7-5.63-4.7a13.31,13.31,0,0,0-3.13.28Z"/><path class="cls-1" d="M135,78.07c0,5.77-2.06,11.74-5.85,15.49a16.19,16.19,0,0,1-11.61,4.6c-8.4,0-12.79-6.14-12.79-13.39,0-5.8,2.21-11.86,6.09-15.62a16.46,16.46,0,0,1,11.42-4.53C130.89,64.62,135,70.66,135,78.07Zm-19.84-5.94c-2.83,2.83-4.45,8.16-4.45,12.36,0,4.89,2.19,9,7.66,9a8.9,8.9,0,0,0,6.32-2.77c2.78-2.79,4.36-8.33,4.36-12.44,0-4.3-1.49-8.93-7.48-8.93A9,9,0,0,0,115.14,72.13Z"/><path class="cls-1" d="M142.86,65.7a38,38,0,0,1,8-.77c3.15,0,6.16.59,8.19,2.09a7,7,0,0,1,3,5.91c0,4.77-3.38,8-7.51,9.27l0,.14c2.08.81,3,3.08,3.32,6.2.38,4,.63,7.76,1.13,9.09H153.2a67.38,67.38,0,0,1-.84-7.74c-.27-4.18-1.76-5.67-4.72-5.67h-2.76l-2.54,13.41h-5.56ZM145.71,80h3.18c4.36,0,7.34-2.74,7.34-6.24,0-3-2.39-4.36-5.56-4.36a12.12,12.12,0,0,0-3,.29Z"/><path class="cls-1" d="M175.22,65.15l-6.17,32.48h-5.61l6.17-32.48Z"/><path class="cls-1" d="M187.56,65.15,184,84.09a20,20,0,0,0-.39,4c0,3.32,2,5.39,5.32,5.39,4,0,6.77-2.68,8-9.29l3.62-19h5.62L202.57,84c-1.88,9.79-6.42,14.12-14.39,14.12-6.09,0-10.2-3.2-10.2-10a25.82,25.82,0,0,1,.45-4.52L182,65.15Z"/><path class="cls-1" d="M233.83,97.63,236,82.36c.49-3.32,1.2-7.92,2-11.92h-.15c-1.67,3.8-3.59,8-5.36,11.45l-8,15.36H220.1l-1.71-15.12c-.38-3.64-.68-7.81-.87-11.69h-.1c-.82,3.72-1.81,8.62-2.61,11.93l-3.75,15.26h-5.2l8.27-32.48h7.4l1.73,15.18c.24,2.91.61,6.27.65,9.34h.17c1.16-3.07,2.73-6.47,4.12-9.3L236,65.15h7.52l-4.27,32.48Z"/><path class="cls-1" d="M234.47,54.87a5.71,5.71,0,0,1-.29-1,1.11,1.11,0,0,0-.46-.75,1.07,1.07,0,0,0,.62-1,1,1,0,0,0-.32-.79,1.71,1.71,0,0,0-1.16-.33,5.14,5.14,0,0,0-1,.08l-.07,0V55h.65V53.33h.39c.41,0,.58.19.69.68a4.51,4.51,0,0,0,.26.94l0,0h.69Zm-1.56-2.07h-.43V51.55a3.32,3.32,0,0,1,.41,0c.37,0,.8.12.8.64S233.39,52.8,232.91,52.8Z"/><path class="cls-1" d="M233.18,49.9A3.09,3.09,0,1,0,236.27,53,3.09,3.09,0,0,0,233.18,49.9Zm0,5.78A2.69,2.69,0,1,1,235.87,53,2.7,2.7,0,0,1,233.18,55.68Z"/><path class="cls-1" d="M56.77,55.17a20.21,20.21,0,0,1-7.93,1.37c-7.86,0-12.92-4.87-12.92-12.74A17.91,17.91,0,0,1,54.31,25.27a13.8,13.8,0,0,1,6.62,1.35l-1.52,4.25a13,13,0,0,0-5.7-1.1A11.8,11.8,0,0,0,46,32.59a14,14,0,0,0-4.4,10.56c0,5.11,2.63,8.9,8.59,8.9a15.32,15.32,0,0,0,6.09-1.14Z"/><path class="cls-1" d="M68.1,47.42,64,56.07H58.4L73.58,25.74h6.57L84,56.07H78.51l-.89-8.65Zm9.24-4.05-.85-7.54c-.15-1.62-.33-4-.48-5.78h-.1c-.79,1.83-1.59,4-2.45,5.76l-3.68,7.56Z"/><path class="cls-1" d="M87.56,56.07l5.75-30.33h6l5.32,14.1a79.66,79.66,0,0,1,2.72,9.5l.11,0a75,75,0,0,1,1.34-10.26l2.52-13.31h4.92l-5.75,30.33h-5.35L99.73,41.71A74.34,74.34,0,0,1,96.84,32l-.15,0c-.33,2.91-.94,6.63-1.79,11.11l-2.44,13Z"/><path class="cls-1" d="M116.85,56.07l5.76-30.33h6L134,39.84a81.58,81.58,0,0,1,2.72,9.5l.11,0a73.5,73.5,0,0,1,1.34-10.26l2.52-13.31h4.92l-5.76,30.33h-5.35L129,41.71a73,73,0,0,1-2.9-9.76L126,32c-.33,2.91-.95,6.63-1.79,11.11l-2.45,13Z"/><path class="cls-1" d="M156.41,30.31H148l.9-4.57H171l-.88,4.57h-8.47l-4.86,25.76h-5.24Z"/><path class="cls-1" d="M179.69,25.74l-3.35,17.68a19,19,0,0,0-.37,3.69c0,3.11,1.86,5,5,5,3.73,0,6.32-2.5,7.5-8.67l3.38-17.74h5.24l-3.35,17.64c-1.76,9.14-6,13.19-13.44,13.19-5.69,0-9.53-3-9.53-9.35a23.51,23.51,0,0,1,.43-4.22l3.28-17.26Z"/><path class="cls-1" d="M222.9,56.07l2-14.26c.46-3.1,1.12-7.39,1.86-11.13h-.14c-1.56,3.55-3.36,7.46-5,10.7l-7.47,14.33h-4.06l-1.6-14.11c-.35-3.4-.63-7.29-.81-10.92h-.09c-.77,3.48-1.69,8-2.44,11.14l-3.5,14.25h-4.86l7.72-30.33h6.91L213,39.91c.23,2.72.57,5.86.61,8.73h.16c1.08-2.87,2.54-6,3.85-8.69L225,25.74h7l-4,30.33Z"/></svg>