<svg xmlns="http://www.w3.org/2000/svg" version="1.1" xmlns:xlink="http://www.w3.org/1999/xlink" width="512" height="512" x="0" y="0" viewBox="0 0 511.996 511.996" style="enable-background:new 0 0 512 512" xml:space="preserve" class=""><g><path d="M326.106 455.457h36.784c14.076 0 26.546-8.437 31.794-21.494l16.504-41.126" style="stroke-width:15;stroke-linecap:round;stroke-linejoin:round;stroke-miterlimit:10;" fill="none" stroke="#ec2628" stroke-width="15" stroke-linecap="round" stroke-linejoin="round" stroke-miterlimit="10" data-original="#000000" opacity="1" class=""></path><path d="M326.106 486.325h36.784c26.752 0 50.469-16.031 60.439-40.859l21.474-53.494" style="stroke-width:15;stroke-linecap:round;stroke-linejoin:round;stroke-miterlimit:10;" fill="none" stroke="#ec2628" stroke-width="15" stroke-linecap="round" stroke-linejoin="round" stroke-miterlimit="10" data-original="#000000" opacity="1" class=""></path><path d="m395.463 391.826 36.685 2.371a27.099 27.099 0 0 0 27.223-17.781l7.46-20.499M442.918 261.435l29.624 21.776a27.12 27.12 0 0 1 9.432 31.116l-2.902 7.971" style="stroke-width:15;stroke-linecap:round;stroke-linejoin:round;stroke-miterlimit:10;" fill="none" stroke="#ec2628" stroke-width="15" stroke-linecap="round" stroke-linejoin="round" stroke-miterlimit="10" data-original="#000000" opacity="1" class=""></path><path d="M427.261 232.764h0c12.829 4.669 19.444 18.855 14.775 31.684l-45.317 124.507c-4.669 12.829-18.855 19.444-31.684 14.775h0c-12.829-4.669-19.444-18.855-14.775-31.684l45.317-124.507c4.669-12.83 18.855-19.445 31.684-14.775z" style="stroke-width:15;stroke-linecap:round;stroke-linejoin:round;stroke-miterlimit:10;" fill="none" stroke="#ec2628" stroke-width="15" stroke-linecap="round" stroke-linejoin="round" stroke-miterlimit="10" data-original="#000000" opacity="1" class=""></path><circle cx="296.249" cy="470.895" r="33.601" style="stroke-width:15;stroke-linecap:round;stroke-linejoin:round;stroke-miterlimit:10;" fill="none" stroke="#ec2628" stroke-width="15" stroke-linecap="round" stroke-linejoin="round" stroke-miterlimit="10" data-original="#000000" opacity="1" class=""></circle><path d="M115.869 402.944h25.68l67.147 57.45c8.992 7.695 22.869 1.308 22.869-10.525v-46.924h44.421c26.231 0 47.486-21.265 47.486-47.486V226.64c0-26.231-21.255-47.497-47.486-47.497H63.539c-26.221 0-47.486 21.265-47.486 47.497v128.817c0 26.221 21.265 47.486 47.486 47.486h16.565M65.478 263.784H274.05M65.478 300.389H274.05M65.478 336.994h174.453" style="stroke-width:15;stroke-linecap:round;stroke-linejoin:round;stroke-miterlimit:10;" fill="none" stroke="#ec2628" stroke-width="15" stroke-linecap="round" stroke-linejoin="round" stroke-miterlimit="10" data-original="#000000" opacity="1" class=""></path><path d="M50.101 181.075c9.524-40.333 30.063-77.356 60.106-107.399C152.891 31.003 209.636 7.5 269.987 7.5s117.096 23.503 159.78 66.176c42.673 42.684 66.176 99.428 66.176 159.78 0 25.312-4.241 50.348-12.446 74.035" style="stroke-width:15;stroke-linecap:round;stroke-linejoin:round;stroke-miterlimit:10;" fill="none" stroke="#ec2628" stroke-width="15" stroke-linecap="round" stroke-linejoin="round" stroke-miterlimit="10" data-original="#000000" opacity="1" class=""></path><path d="M82.372 179.144c23.585-81.351 98.774-140.988 187.616-140.988 107.685 0 195.3 87.615 195.3 195.3a195.79 195.79 0 0 1-4.384 41.202" style="stroke-width:15;stroke-linecap:round;stroke-linejoin:round;stroke-miterlimit:10;" fill="none" stroke="#ec2628" stroke-width="15" stroke-linecap="round" stroke-linejoin="round" stroke-miterlimit="10" data-original="#000000" opacity="1" class=""></path></g></svg>