<svg id="Layer_1" data-name="Layer 1" xmlns="http://www.w3.org/2000/svg" viewBox="0 0 258.86 123.43"><defs><style>.cls-1{fill:#001e40;}</style></defs><path class="cls-1" d="M35.62,83.19H24l-1.83,9.65H35.24l-.91,4.79H15.6l6.16-32.48h18l-.93,4.79H26.48l-1.63,8.5H36.54Z"/><path class="cls-1" d="M66.66,97.63,68.8,82.36c.49-3.32,1.2-7.92,2-11.92h-.14c-1.67,3.8-3.59,8-5.37,11.45l-8,15.36H52.93L51.21,82.13c-.38-3.64-.67-7.81-.86-11.69h-.1c-.82,3.72-1.81,8.62-2.61,11.93L43.89,97.63h-5.2L47,65.15h7.4l1.72,15.18c.25,2.91.61,6.27.66,9.34h.17c1.15-3.07,2.72-6.47,4.12-9.3l7.84-15.22h7.52L72.12,97.63Z"/><path class="cls-1" d="M84.2,65.7A36,36,0,0,1,92,64.93c3,0,6.22.6,8.32,2.31a7.67,7.67,0,0,1,3,6.45,11.18,11.18,0,0,1-4.17,8.81c-2.59,2.09-6.32,3.06-10.14,3.06a23.24,23.24,0,0,1-3-.22L83.64,97.63H78.13Zm2.64,15a13.49,13.49,0,0,0,2.93.28c4.76,0,7.92-3,7.92-6.85,0-3.45-2.48-4.7-5.63-4.7a13.15,13.15,0,0,0-3.12.28Z"/><path class="cls-1" d="M135.29,78.07c0,5.77-2.07,11.74-5.86,15.49a16.18,16.18,0,0,1-11.6,4.6C109.42,98.16,105,92,105,84.77c0-5.8,2.2-11.86,6.09-15.62a16.43,16.43,0,0,1,11.41-4.53C131.19,64.62,135.29,70.66,135.29,78.07Zm-19.85-5.94C112.62,75,111,80.29,111,84.49c0,4.89,2.18,9,7.65,9A8.9,8.9,0,0,0,125,90.69c2.79-2.79,4.36-8.33,4.36-12.44,0-4.3-1.49-8.93-7.48-8.93A9,9,0,0,0,115.44,72.13Z"/><path class="cls-1" d="M143.17,65.7a37.91,37.91,0,0,1,8-.77c3.15,0,6.16.59,8.18,2.09a7,7,0,0,1,3.06,5.91c0,4.77-3.39,8-7.52,9.27l0,.14c2.09.81,3,3.08,3.32,6.2.39,4,.63,7.76,1.13,9.09h-5.78a62.83,62.83,0,0,1-.84-7.74c-.28-4.18-1.76-5.67-4.73-5.67h-2.76l-2.54,13.41h-5.56ZM146,80h3.18c4.35,0,7.33-2.74,7.33-6.24,0-3-2.39-4.36-5.55-4.36a12.16,12.16,0,0,0-3,.29Z"/><path class="cls-1" d="M175.52,65.15l-6.17,32.48h-5.6l6.16-32.48Z"/><path class="cls-1" d="M187.87,65.15l-3.6,18.94a20.76,20.76,0,0,0-.38,4c0,3.32,2,5.39,5.32,5.39,4,0,6.76-2.68,8-9.29l3.62-19h5.62L202.87,84c-1.87,9.79-6.42,14.12-14.38,14.12-6.1,0-10.21-3.2-10.21-10a24.93,24.93,0,0,1,.46-4.52l3.51-18.49Z"/><path class="cls-1" d="M234.14,97.63l2.13-15.27c.49-3.32,1.21-7.92,2-11.92h-.14c-1.68,3.8-3.6,8-5.37,11.45l-8,15.36H220.4l-1.71-15.12c-.38-3.64-.67-7.81-.86-11.69h-.1c-.83,3.72-1.82,8.62-2.62,11.93l-3.75,15.26h-5.2l8.27-32.48h7.4l1.73,15.18c.24,2.91.61,6.27.65,9.34h.17c1.16-3.07,2.73-6.47,4.13-9.3l7.83-15.22h7.53l-4.28,32.48Z"/><path class="cls-1" d="M234.77,54.87a7.09,7.09,0,0,1-.28-1,1.15,1.15,0,0,0-.46-.75,1.07,1.07,0,0,0,.62-1,1,1,0,0,0-.33-.79,1.67,1.67,0,0,0-1.16-.33,5.3,5.3,0,0,0-1,.08l-.06,0V55h.65V53.33h.38c.41,0,.59.19.69.68a4.24,4.24,0,0,0,.27.94l0,0h.69Zm-1.56-2.07h-.42V51.55a3,3,0,0,1,.41,0c.36,0,.8.12.8.64S233.69,52.8,233.21,52.8Z"/><path class="cls-1" d="M233.49,49.9A3.09,3.09,0,1,0,236.57,53,3.1,3.1,0,0,0,233.49,49.9Zm0,5.78A2.69,2.69,0,1,1,236.18,53,2.69,2.69,0,0,1,233.49,55.68Z"/><path class="cls-1" d="M57.08,55.17a20.31,20.31,0,0,1-7.94,1.37c-7.86,0-12.91-4.87-12.91-12.74A17.89,17.89,0,0,1,54.62,25.27a13.75,13.75,0,0,1,6.61,1.35l-1.51,4.25A13,13,0,0,0,54,29.77a11.8,11.8,0,0,0-7.73,2.82,14,14,0,0,0-4.39,10.56c0,5.11,2.63,8.9,8.58,8.9a15.32,15.32,0,0,0,6.09-1.14Z"/><path class="cls-1" d="M68.41,47.42l-4.13,8.65H58.7L73.89,25.74h6.56l3.83,30.33H78.81l-.88-8.65Zm9.24-4.05-.86-7.54c-.15-1.62-.33-4-.47-5.78h-.1c-.8,1.83-1.6,4-2.46,5.76l-3.68,7.56Z"/><path class="cls-1" d="M87.86,56.07l5.76-30.33h6L105,39.84a81.58,81.58,0,0,1,2.72,9.5l.11,0a73.5,73.5,0,0,1,1.34-10.26l2.52-13.31h4.92l-5.76,30.33h-5.35L100,41.71A73,73,0,0,1,97.14,32L97,32c-.33,2.91-1,6.63-1.79,11.11l-2.45,13Z"/><path class="cls-1" d="M117.16,56.07l5.75-30.33h6l5.33,14.1a79.66,79.66,0,0,1,2.72,9.5l.11,0a75,75,0,0,1,1.34-10.26L141,25.74h4.92l-5.76,30.33h-5.34l-5.44-14.36a76.07,76.07,0,0,1-2.9-9.76l-.14,0c-.33,2.91-.94,6.63-1.79,11.11l-2.44,13Z"/><path class="cls-1" d="M156.72,30.31h-8.38l.9-4.57h22.07l-.88,4.57H162l-4.87,25.76h-5.24Z"/><path class="cls-1" d="M180,25.74l-3.36,17.68a19,19,0,0,0-.36,3.69c0,3.11,1.86,5,5,5,3.73,0,6.32-2.5,7.49-8.67l3.38-17.74h5.25L194,43.38c-1.75,9.14-6,13.19-13.43,13.19-5.7,0-9.54-3-9.54-9.35a24.46,24.46,0,0,1,.43-4.22l3.28-17.26Z"/><path class="cls-1" d="M223.21,56.07l2-14.26c.45-3.1,1.12-7.39,1.85-11.13h-.13c-1.57,3.55-3.36,7.46-5,10.7l-7.46,14.33h-4.06L208.78,41.6c-.35-3.4-.62-7.29-.8-10.92h-.1c-.77,3.48-1.69,8-2.44,11.14l-3.5,14.25h-4.85l7.72-30.33h6.91l1.61,14.17c.23,2.72.57,5.86.61,8.73h.16c1.08-2.87,2.55-6,3.85-8.69l7.32-14.21h7l-4,30.33Z"/></svg>