<svg width="30" height="19" viewBox="0 0 30 19" fill="none" xmlns="http://www.w3.org/2000/svg">
<path fill-rule="evenodd" clip-rule="evenodd" d="M21.0698 0.453308C23.5841 1.05687 24.5459 2.57779 25.7517 4.67114H21.0698V0.453308ZM6.37601 4.84692C6.86829 4.84692 7.22562 5.09274 7.22562 5.66724C7.22562 6.15178 6.84661 6.54477 6.37844 6.54614H1.24561C0.776329 6.54614 0.395996 6.93982 0.395996 7.42505C0.395996 7.91051 0.776329 8.30396 1.24561 8.30396H8.89209C9.36579 8.30396 9.74502 8.69717 9.74502 9.18286C9.74502 9.66832 9.36469 10.0618 8.89541 10.0618H1.24561C0.776329 10.0618 0.395996 10.4552 0.395996 10.9407C0.395996 11.4261 0.776329 11.8196 1.24561 11.8196H3.11475V14.4563C3.11475 14.9418 3.49508 15.3352 3.96436 15.3352H5.6722C5.97665 16.8866 7.30173 18.0305 8.86377 18.0305C10.4258 18.0305 11.7509 16.8866 12.0553 15.3352H20.682C20.9864 16.8866 22.3115 18.0305 23.8735 18.0305C25.4356 18.0305 26.7607 16.8866 27.0651 15.3352H28.5464C29.0157 15.3352 29.396 14.9418 29.396 14.4563V9.18286C29.396 6.60405 26.7666 6.43285 26.7642 6.42896H20.2202C19.7509 6.42896 19.3706 6.03551 19.3706 5.55005V0.276611H3.96436C3.49508 0.276611 3.11475 0.670059 3.11475 1.15552V3.08911H2.09521C1.62594 3.08911 1.24561 3.48256 1.24561 3.96802C1.24561 4.45348 1.62594 4.84692 2.09521 4.84692H6.37601ZM24.9749 13.522C25.5832 14.1512 25.5832 15.1718 24.9749 15.801C23.9966 16.8131 22.3159 16.093 22.3159 14.6614C22.3159 13.2299 23.9966 12.5099 24.9749 13.522ZM9.96516 13.522C10.5734 14.1512 10.5734 15.1718 9.96516 15.801C8.98679 16.8131 7.30615 16.093 7.30615 14.6614C7.30615 13.2299 8.98679 12.5099 9.96516 13.522Z" fill="black"/>
</svg>
