<svg width="24" height="22" viewBox="0 0 24 22" fill="none" xmlns="http://www.w3.org/2000/svg">
<path d="M22.8946 11.7609C21.6592 7.95898 17.7382 5.36443 13.0384 5.28737V0.843245C13.0384 0.637736 12.8504 0.457916 12.6355 0.457916C12.555 0.457916 12.4744 0.483605 12.3938 0.534982L0.442815 8.8067C0.254821 8.93514 0.227965 9.16634 0.362246 9.34616C0.389102 9.37185 0.415958 9.39754 0.442815 9.42323L12.3938 17.6436C12.5818 17.772 12.8235 17.7206 12.9578 17.5665C13.0115 17.4894 13.0384 17.4124 13.0384 17.3353V12.9169C15.9389 12.9169 18.3828 14.227 19.2422 16.205C19.9673 17.9005 19.3765 19.7243 17.6577 21.24C17.4965 21.3941 17.4697 21.6253 17.6308 21.7794C17.7114 21.8565 17.8188 21.9079 17.9262 21.9079H18.2485C18.3291 21.9079 18.4096 21.8822 18.4633 21.8308C22.4112 19.339 24.1032 15.46 22.8946 11.7609Z" fill="black"/>
</svg>
