<svg id="Layer_1" data-name="Layer 1" xmlns="http://www.w3.org/2000/svg" viewBox="0 0 9.48 9.48"><defs><style>.cls-1{fill:#fff;}</style></defs><g id="Fax"><path class="cls-1" d="M8.45,1.44H7.62A.62.62,0,0,1,7,.82V0H4.12a.41.41,0,0,0-.41.41V2.47H8.45Z"/><path class="cls-1" d="M7.62,1h.83l-1-1V.82A.2.2,0,0,0,7.62,1Z"/><rect class="cls-1" x="1.03" y="2.06" width="1.85" height="6.39" rx="0.41"/><path class="cls-1" d="M4.33,4.12H8.24v.82H4.33Z"/><path class="cls-1" d="M8.86,2.88H3.3V8a.83.83,0,0,1-.83.83h-1A.83.83,0,0,1,.62,8V2.88A.62.62,0,0,0,0,3.5V8.86a.62.62,0,0,0,.62.62H8.86a.62.62,0,0,0,.62-.62V3.5A.62.62,0,0,0,8.86,2.88ZM4.94,8.45h-1V7.62h1Zm0-1.65h-1V6h1ZM6.8,8.45h-1V7.62h1Zm0-1.65h-1V6h1ZM8.65,8.45h-1V7.62h1Zm0-1.65h-1V6h1Zm0-1.65a.21.21,0,0,1-.2.21H4.12a.22.22,0,0,1-.21-.21V3.91a.21.21,0,0,1,.21-.2H8.45a.2.2,0,0,1,.2.2Z"/></g></svg>