<svg id="Layer_1" data-name="Layer 1" xmlns="http://www.w3.org/2000/svg" viewBox="0 0 9.48 9.49"><defs><style>.cls-1{fill:#fff;}</style></defs><path class="cls-1" d="M6.38,6.67a.76.76,0,0,1-.56.25c-.46,0-1.09-.41-2-1.3A4.88,4.88,0,0,1,2.62,4a.79.79,0,0,1,.19-.89l1-1L1.62,0,.91.71C-.21,1.83-.89,3.44,2.57,6.9c1.74,1.74,3.14,2.59,4.3,2.59h0a2.6,2.6,0,0,0,1.89-.92l.71-.71L7.34,5.71Z"/><path class="cls-1" d="M8.89,4.77l.59-.06a6.46,6.46,0,0,0-1.69-3A6.37,6.37,0,0,0,4.77,0L4.7.58A5.72,5.72,0,0,1,8.89,4.77Z"/><path class="cls-1" d="M7.33,5l.58-.06A4.82,4.82,0,0,0,6.69,2.78a4.8,4.8,0,0,0-2.1-1.21l-.07.58A4.2,4.2,0,0,1,7.33,5Z"/></svg>